<svg xmlns="http://www.w3.org/2000/svg"
 width="798" height="326" viewBox="0 0 798 326"
 role="img" aria-labelledby="xmocha-words-new-title" preserveAspectRatio="xMidYMid meet">
<title id="xmocha-words-new-title">xMocha wordmark</title>
<defs>
<linearGradient id="xmocha-wordmark-gradient" x1="0%" y1="45%" x2="100%" y2="55%">
<stop offset="0%" stop-color="#ff543f"/>
<stop offset="14%" stop-color="#ff7544"/>
<stop offset="31%" stop-color="#ffd47a"/>
<stop offset="53%" stop-color="#ffbd5d"/>
<stop offset="76%" stop-color="#ffe1a6"/>
<stop offset="100%" stop-color="#f4b45f"/>
</linearGradient>
<filter id="xmocha-wordmark-glow" x="-12%" y="-18%" width="124%" height="136%" color-interpolation-filters="sRGB">
<feDropShadow dx="0" dy="0" stdDeviation="2.2" flood-color="#ff7544" flood-opacity="0.8"/>
<feDropShadow dx="0" dy="0" stdDeviation="6" flood-color="#ffc46f" flood-opacity="0.42"/>
</filter>
</defs>
<g transform="translate(0.000000,326.000000) scale(0.100000,-0.100000)"
fill="url(#xmocha-wordmark-gradient)" filter="url(#xmocha-wordmark-glow)" stroke="none">
<path d="M5780 3133 c-25 -9 -40 -35 -40 -70 0 -35 22 -55 72 -67 19 -4 30
-15 35 -34 5 -15 8 -614 8 -1332 0 -1353 0 -1350 -39 -1350 -22 0 -46 -35 -46
-67 0 -43 27 -63 84 -63 41 0 53 5 81 33 18 18 38 51 44 72 7 28 11 314 11
926 0 606 3 896 11 917 20 58 46 66 216 67 171 0 191 -7 226 -77 16 -33 17
-93 17 -913 0 -609 4 -891 11 -921 17 -65 65 -104 129 -104 39 0 52 4 64 22
19 27 21 73 4 87 -7 6 -26 21 -43 35 l-30 24 -5 904 c-6 1011 0 941 -78 1009
-67 59 -88 64 -305 66 -109 1 -202 5 -207 8 -6 4 -10 146 -10 366 0 387 -3
411 -52 443 -24 15 -130 28 -158 19z M1681 2831 c-11 -11 -21 -34 -21 -49 0
-29 26 -62 48 -62 6 0 16 -9 22 -19 12 -24 13 -2304 1 -2371 -7 -33 -18 -51
-45 -73 -27 -22 -36 -37 -36 -59 0 -53 15 -68 70 -68 57 0 101 31 127 89 23
53 24 125 26 1361 l2 1125 51 -1 c129 -3 259 -111 347 -289 75 -152 72 -100
72 -1140 0 -880 -1 -932 -18 -963 -11 -20 -33 -40 -55 -49 -52 -21 -72 -42
-72 -73 0 -38 29 -60 79 -60 45 0 73 11 108 42 22 20 22 20 55 -5 44 -34 114
-50 148 -34 38 18 49 61 24 94 -11 15 -33 30 -48 34 -44 12 -64 37 -76 94 -7
36 -10 323 -7 931 3 848 4 882 24 970 59 255 224 443 395 448 l53 1 5 -1225
c5 -1343 2 -1262 63 -1319 31 -28 92 -42 125 -27 25 11 43 60 32 91 -4 11 -19
26 -33 33 -15 7 -33 23 -39 35 -16 28 -23 2329 -7 2390 5 20 16 37 24 37 17 0
45 38 45 63 0 10 -11 29 -25 42 -22 23 -31 25 -127 25 -120 0 -215 -18 -285
-53 -115 -59 -218 -170 -282 -306 l-30 -64 -36 74 c-48 99 -138 207 -217 258
-95 62 -168 82 -329 88 -130 5 -137 5 -158 -16z M3837 2332 c-11 -12 -17 -41
-19 -92 l-3 -75 -78 -12 c-110 -17 -144 -30 -195 -76 -49 -46 -76 -93 -86
-152 -12 -62 -16 -1232 -6 -1308 11 -73 44 -149 82 -184 40 -38 131 -73 209
-81 l74 -7 3 -90 c3 -102 16 -125 67 -125 51 0 64 23 67 125 l3 90 80 7 c141
13 239 78 277 186 10 29 13 186 13 727 0 688 0 690 -22 730 -28 54 -100 119
-149 135 -21 7 -75 18 -119 25 l-80 11 -3 74 c-3 86 -18 110 -67 110 -18 0
-39 -8 -48 -18z m-19 -1081 l2 -774 -58 5 c-73 7 -131 36 -157 80 -19 32 -20
53 -23 676 -2 617 -2 645 17 687 10 24 31 51 47 61 27 18 126 44 154 41 13 -2
15 -97 18 -776z m292 747 c26 -14 53 -37 65 -58 19 -34 20 -53 22 -660 3 -674
1 -700 -49 -747 -35 -33 -91 -53 -148 -53 l-50 0 0 770 0 770 58 0 c40 0 71
-7 102 -22z M4876 2305 c-61 -17 -114 -59 -146 -116 l-25 -44 0 -885 0 -885
22 -41 c32 -60 94 -111 156 -129 37 -11 101 -16 208 -17 177 -1 248 13 291 59
50 54 53 67 56 270 4 183 3 192 -17 212 -26 26 -72 27 -94 3 -13 -14 -17 -47
-20 -162 -5 -176 -15 -209 -76 -233 -47 -19 -233 -24 -290 -7 -44 12 -87 54
-102 97 -8 24 -11 273 -13 836 -1 784 -1 803 19 842 34 68 68 80 230 80 77 0
152 -3 167 -8 43 -12 57 -52 60 -167 1 -83 5 -107 21 -126 23 -30 69 -32 98
-3 20 20 21 29 18 173 -4 136 -6 155 -27 187 -40 66 -71 74 -292 76 -140 1
-209 -2 -244 -12z M1167 2249 c-170 -40 -250 -181 -272 -479 -9 -117 -29 -175
-79 -224 -52 -52 -100 -68 -150 -51 -99 34 -129 91 -145 275 -23 265 -85 382
-243 455 -53 25 -102 31 -125 17 -6 -4 -16 -20 -22 -35 -16 -42 3 -73 58 -92
130 -43 182 -132 201 -342 15 -152 33 -224 71 -279 34 -50 93 -97 145 -116 49
-18 47 -51 -6 -78 -58 -30 -118 -94 -145 -155 -29 -65 -42 -133 -51 -266 -15
-247 -69 -357 -187 -390 -71 -20 -96 -68 -61 -117 48 -69 246 35 313 165 31
62 48 146 65 318 9 88 21 176 26 196 16 58 52 102 106 131 l50 27 51 -23 c98
-46 127 -114 143 -339 19 -279 72 -388 221 -460 30 -14 74 -29 99 -32 38 -6
48 -3 64 14 22 24 25 73 7 94 -6 8 -28 18 -48 22 -138 26 -201 127 -217 350
-15 199 -26 257 -61 325 -28 53 -91 115 -144 140 -70 32 -69 56 4 94 63 33
105 76 139 144 28 56 33 80 51 256 15 140 35 207 77 260 30 37 83 66 122 66
62 0 89 81 40 119 -29 23 -39 24 -97 10z M7250 2189 c-102 -12 -163 -49 -203
-124 -22 -40 -22 -44 -27 -880 -4 -661 -8 -845 -18 -863 -7 -12 -29 -30 -50
-40 -76 -36 -66 -124 15 -130 51 -4 93 17 127 61 50 65 50 69 56 482 l5 390
233 3 232 2 0 -368 c0 -378 6 -458 39 -502 29 -40 80 -70 121 -70 46 0 68 16
76 57 6 33 -8 53 -65 93 -39 27 -42 108 -37 909 3 581 1 765 -8 802 -30 115
-109 170 -250 176 -44 2 -106 5 -136 6 -30 1 -80 0 -110 -4z m317 -165 c56
-42 57 -47 56 -431 -1 -193 -4 -356 -8 -362 -6 -11 -423 -15 -451 -4 -12 4
-14 60 -14 354 0 484 -8 469 252 466 121 -2 140 -4 165 -23z"/>
</g>
</svg>
